<?xml version="1.0" standalone="no"?>
<!DOCTYPE svg PUBLIC "-//W3C//DTD SVG 1.1//EN" "http://www.w3.org/Graphics/SVG/1.1/DTD/svg11.dtd" >
<!--
2013-9-30: Created.
-->
<svg>
<metadata>
Created by iconfont
</metadata>
<defs>

<font id="iconfont" horiz-adv-x="1024" >
  <font-face
    font-family="iconfont"
    font-weight="500"
    font-stretch="normal"
    units-per-em="1024"
    ascent="896"
    descent="-128"
  />
    <missing-glyph />
    
    <glyph glyph-name="xuanzhong" unicode="&#58992;" d="M512 871.619048C243.809524 871.619048 24.380952 652.190476 24.380952 384s219.428571-487.619048 487.619048-487.619048 487.619048 219.428571 487.619048 487.619048S780.190476 871.619048 512 871.619048z m212.114286-399.847619l-2.438096-2.438096-243.809523-243.809523c-14.628571-14.628571-36.571429-14.628571-51.2 0l-121.904762 121.904761c-14.628571 14.628571-14.628571 36.571429 0 51.2 14.628571 14.628571 36.571429 14.628571 51.2 0l97.523809-97.523809s202.361905 204.8 216.990476 219.428571c14.628571 14.628571 36.571429 17.066667 51.2 2.438096 14.628571-14.628571 14.628571-36.571429 2.438096-51.2z"  horiz-adv-x="1024" />

    
    <glyph glyph-name="eye" unicode="&#59304;" d="M720 640c41.3 0 80.2-5.4 115.7-16 34.7-10.4 67.3-26.2 97-47 30.3-21.2 58.7-48.4 84.3-80.8 25.2-31.8 48.4-69.5 69.1-112.1-20.7-42.6-44-80.3-69.1-112.2-25.6-32.4-54-59.6-84.3-80.9-29.7-20.8-62.3-36.6-96.9-47-35.4-10.6-74.4-16-115.7-16s-80.2 5.4-115.7 16c-34.7 10.4-67.3 26.2-97 47-30.3 21.2-58.7 48.4-84.3 80.8-25.2 31.8-48.4 69.5-69.1 112.1 20.7 42.6 44 80.3 69.1 112.2 25.6 32.4 54 59.6 84.3 80.9 29.7 20.8 62.3 36.6 96.9 47 35.4 10.6 74.4 16 115.7 16m0 80c-197.5 0-344.7-103.6-442.1-309.5-7.9-16.7-7.9-36.3 0-53.1C375.3 151.6 522.6 48 720 48c197.5 0 344.7 103.6 442.1 309.5 7.9 16.7 7.9 36.1 0 53.1C1064.7 616.4 917.4 720 720 720zM720 480c53.1 0 96-42.9 96-96s-42.9-96-96-96-96 42.9-96 96 42.9 96 96 96m0 80c-23.7 0-46.8-4.7-68.5-13.8-21-8.9-39.8-21.5-55.9-37.7-16.1-16.1-28.8-35-37.7-55.9-9.2-21.7-13.8-44.8-13.8-68.5s4.7-46.8 13.8-68.5c8.9-21 21.5-39.8 37.7-55.9 16.1-16.1 35-28.8 55.9-37.7 21.7-9.2 44.8-13.8 68.5-13.8s46.8 4.7 68.5 13.8c21 8.9 39.8 21.5 55.9 37.7 16.1 16.1 28.8 35 37.7 55.9 9.2 21.7 13.8 44.8 13.8 68.5s-4.7 46.8-13.8 68.5c-8.9 21-21.5 39.8-37.7 55.9-16.1 16.1-35 28.8-55.9 37.7-21.7 9.1-44.8 13.8-68.5 13.8z"  horiz-adv-x="1440" />

    
    <glyph glyph-name="eye1" unicode="&#58887;" d="M720.229956 567.843212c0.364889-0.243259 0.608148-0.486519 0.973037-0.608148l49.868156 50.233044c-0.243259 0.243259-0.608148 0.486519-0.851408 0.729778l71.396603 71.761492c11.798076 11.919705 11.798076 31.13719-0.12163 43.056895-11.919705 11.798076-31.13719 11.798076-43.056895-0.12163l-80.397197-80.883715c-60.693194 32.718375-129.292315 49.260007-205.918992 49.260007-187.066397 0-326.332344-97.790236-418.649246-292.154413-7.541038-15.811854-7.541038-34.299561 0-50.111415C132.028982 277.269985 178.978026 212.80627200000004 234.197886 165.49233900000002l-87.816606-88.303124c-11.798076-11.919705-11.798076-31.13719 0.12163-43.056895 5.959853-5.959853 13.74415-8.878964 21.406818-8.878964 7.784297 0 15.568595 3.040741 21.528448 9.000593l94.141347 94.627866c0.364889-0.243259 0.608148-0.364889 0.973037-0.608148l50.962822 51.327711c-0.364889 0.243259-0.729778 0.364889-0.973037 0.608148L720.229956 567.843212zM399.127687 383.81755599999997c0 60.206675 48.773489 108.980164 108.980164 108.980163 15.203706 0 29.799264-3.162371 42.935266-8.757334L408.128281 340.274142c-5.838223 13.379261-9.000594 28.096449-9.000594 43.543414z m-240.096923 0c81.005345 167.605654 195.945362 247.151443 352.969236 247.151443 56.679416 0 107.763867-10.33852 153.861504-31.502079l-68.842381-69.207269c-25.907115 15.811854-56.314527 24.812448-88.911272 24.812448-94.627866 0-171.254543-76.626678-171.254543-171.254543 0-32.840005 9.243853-63.612305 25.420596-89.76268l-78.451122-78.937641C235.414182 255.49827800000003 194.060102 311.44791499999997 159.030764 383.81755599999997zM514.310963 275.080651L459.212733 219.73916099999997c15.446965-4.621927 31.866968-7.05452 48.773489-7.054519 94.627866 0 171.254543 76.626678 171.254543 171.254543 0 17.27141-2.554223 33.934672-7.297779 49.746526L616.844756 378.34422099999995c-2.797482-55.706378-47.070673-100.1012-102.533793-103.26357zM930.527616 408.873263c-32.231857 67.869343-70.180306 123.940611-113.84535 168.092172L767.30063 527.462169c36.853783-37.340302 69.328899-85.140753 97.546977-143.644613-81.005345-167.605654-195.823732-247.151443-352.969237-247.151444-41.718969 0-80.397197 5.594964-116.277942 17.028151l-54.368453-54.611712c51.6926-21.528448 108.493645-32.353486 170.646395-32.353486 187.066397 0 326.332344 97.790236 418.649246 292.154413 7.541038 15.690224 7.541038 34.056301 0 49.989785z"  horiz-adv-x="1024" />

    
    <glyph glyph-name="ren" unicode="&#58886;" d="M932-125.996h-63.008c0.214 5.322 0.782 10.556 0.782 15.928 0 202.452-160.176 366.572-357.774 366.572S154.226 92.382 154.226-110.068c0-5.372 0.556-10.606 0.782-15.928H92c0 183.486 111.308 339.874 268.066 402.588-99.608 55.586-167.266 164.12-167.266 288.926C192.8 746.944 335.71 893.994 512 893.994s319.2-147.05 319.2-328.476c0-124.804-67.656-233.34-167.266-288.926C820.692 213.876 932 57.49 932-125.996z m-167.998 691.514C764.002 708.74 651.18 824.844 512 824.844S259.998 708.74 259.998 565.518c0-143.212 112.822-259.316 252.002-259.316s252.002 116.102 252.002 259.316z"  horiz-adv-x="1024" />

    
    <glyph glyph-name="quyu" unicode="&#58961;" d="M896 256h-198.4c-12.8-19.2-25.6-44.8-44.8-64h198.4l83.2-256H89.6l83.2 256h198.4c-12.8 19.2-25.6 44.8-44.8 64H128l-128-384h1024l-128 384zM512 832c140.8 0 256-115.2 256-256 0-96-140.8-320-256-473.6C396.8 256 256 480 256 576c0 140.8 115.2 256 256 256m0 64C332.8 896 192 755.2 192 576s320-576 320-576 320 396.8 320 576-140.8 320-320 320zM512 640c38.4 0 64-25.6 64-64s-25.6-64-64-64-64 25.6-64 64 25.6 64 64 64m0 64c-70.4 0-128-57.6-128-128s57.6-128 128-128 128 57.6 128 128-57.6 128-128 128z"  horiz-adv-x="1024" />

    
    <glyph glyph-name="yanzhengma" unicode="&#59019;" d="M931.368421 256c0-3.368421-26.947368-74.105263-87.578947-151.578947-37.052632-47.157895-80.842105-87.578947-128-121.263158-60.631579-43.789474-128-74.105263-198.736842-94.31579h-6.736843-6.736842c-74.105263 20.210526-141.473684 50.526316-198.736842 94.31579-47.157895 33.684211-90.947368 74.105263-128 121.263158C106.105263 181.894737 82.526316 252.631579 79.157895 256V663.578947c0 13.473684 10.105263 26.947368 23.578947 30.31579C338.526316 747.789474 483.368421 885.894737 486.736842 885.894737c10.105263 10.105263 30.315789 10.105263 40.421053 0 0 0 37.052632-37.052632 101.052631-77.473684C688.842105 771.368421 786.526316 720.842105 911.157895 693.894737c13.473684-3.368421 23.578947-16.842105 23.578947-30.31579v-397.473684c0-3.368421-3.368421-6.736842-3.368421-10.105263zM874.105263 640C752.842105 670.315789 658.526316 720.842105 597.894737 761.263158c-40.421053 26.947368-70.736842 50.526316-90.947369 64-16.842105-16.842105-47.157895-40.421053-87.578947-64-64-40.421053-158.315789-90.947368-279.578947-121.263158v-367.157895c6.736842-16.842105 30.315789-74.105263 77.473684-134.736842 74.105263-94.315789 171.789474-158.315789 286.315789-192 114.526316 33.684211 212.210526 97.684211 286.31579 192 50.526316 60.631579 74.105263 117.894737 77.473684 131.368421l6.736842 370.526316m-168.421052-154.947368l-232.421053-235.789474c-6.736842-6.736842-13.473684-10.105263-20.210526-10.105263-6.736842 0-13.473684 3.368421-16.842106 6.736842l-124.631579 87.578947c-13.473684 10.105263-16.842105 30.315789-6.736842 43.789474s26.947368 16.842105 40.421053 6.736842l104.421053-70.736842 215.578947 218.947368c10.105263 13.473684 30.315789 13.473684 43.789474 0 10.105263-13.473684 10.105263-33.684211-3.368421-47.157894z"  horiz-adv-x="1024" />

    
    <glyph glyph-name="banjiguanli" unicode="&#58993;" d="M302.545455 337.454545h181.527272c18.618182 0 32.581818 13.963636 32.581818 32.581819s-13.963636 32.581818-32.581818 32.581818H302.545455c-18.618182 0-32.581818-13.963636-32.581819-32.581818-4.654545-18.618182 9.309091-32.581818 32.581819-32.581819zM302.545455 179.2h381.672727c18.618182 0 32.581818 13.963636 32.581818 32.581818s-13.963636 32.581818-32.581818 32.581818H302.545455c-18.618182 0-32.581818-13.963636-32.581819-32.581818-4.654545-18.618182 9.309091-32.581818 32.581819-32.581818zM865.745455 607.418182H698.181818V719.127273h195.490909c18.618182 0 32.581818 13.963636 32.581818 32.581818 0 18.618182-13.963636 32.581818-32.581818 32.581818h-744.727272c-18.618182 0-32.581818-13.963636-32.581819-32.581818 0-18.618182 13.963636-32.581818 32.581819-32.581818h167.563636v-111.709091H167.563636c-32.581818 0-55.854545-23.272727-55.854545-55.854546v-521.309091c0-32.581818 23.272727-55.854545 55.854545-55.854545h698.181819c32.581818 0 55.854545 23.272727 55.854545 55.854545V551.563636c0 32.581818-23.272727 55.854545-55.854545 55.854546zM381.672727 719.127273h246.690909v-111.709091H381.672727V719.127273z m474.763637-679.563637H176.872727V542.254545h674.909091v-502.690909z"  horiz-adv-x="1024" />

    
    <glyph glyph-name="shouji" unicode="&#58908;" d="M770.853595-127.975034H252.998957a78.968963 78.968963 0 0 0-79.018896 78.769231V817.230769A78.993929 78.993929 0 0 0 252.998957 896h517.854638a78.993929 78.993929 0 0 0 79.018896-78.769231v-866.336706a78.968963 78.968963 0 0 0-79.018896-78.869097zM797.193227 817.230769a26.314665 26.314665 0 0 1-26.339632 26.239766H252.998957A26.314665 26.314665 0 0 1 226.659325 817.230769v-649.128367h570.533902v649.128367z m0-706.076898H226.659325v-160.284774a26.314665 26.314665 0 0 1 26.339632-26.239766h517.854638a26.314665 26.314665 0 0 1 26.339632 26.264732v160.284774zM511.926276-29.632086a52.179934 52.179934 0 1 0 52.429599 52.154968 52.304767 52.304767 0 0 0-52.429599-52.154968z"  horiz-adv-x="1024" />

    
    <glyph glyph-name="duihao" unicode="&#58883;" d="M63.222927 384c0 0 231.767598-189.584869 254.790964-350.823134 0 0 303.906591 497.491565 641.581264 542.003338 0 0-102.837156 74.943876-69.070098 193.395662 0 0-187.255825-18.684548-540.279067-566.637388L184.79375 482.787934 63.222927 384z"  horiz-adv-x="1024" />

    
    <glyph glyph-name="suo1" unicode="&#58901;" d="M828.6327907270247 509.04094573912744c-19.91285814314563 0.19189649029159125-18.419663907699668-2.6421751889396923-18.46763773726325 19.108091643641405-0.08755235615726081 39.92166394541844 0.7723831097152687 35.46366899356924-0.19669363884049512 75.36134602420589-1.953746280960689 80.47778565453818-31.95915917846393 149.47536544753504-88.55902600127374 204.95743454047488-94.08324669900828 92.21705277420484-231.13691226157445 112.16349330126737-345.86582168685 48.43707026259381-98.68516431158547-54.81642927765199-150.72029288811868-141.71075331354896-154.76331280779817-256.75749111773905-1.3144913687104445-37.37663658177107-0.037179366300593396-30.44677517678509-0.226677868336368-67.87258575428493-0.13552735775811164-26.905085995379185 3.297021713001828-22.948420609766316-22.883655002225662-23.197885226719293-40.907532471951264-0.38979029529726533-69.44853519733924-29.110696053585936-69.47012412386519-70.66947689517833-0.0935496708713437-163.96834702708043 0.5349119501531847-327.94269019683776-0.5085258750783074-491.90503990920405-0.2710535434789526-42.53145574456915 35.421691306682476-72.93505541237684 71.67333502177888-72.45531360062924 103.9527217394505 1.3744586556649196 207.9366278745621 0.4821398000034299 311.9049412258245 0.48453896029651733 104.67113487692538 0 209.34226975385076-0.040777520721588974 314.01340463077617 0.01918976623288619 43.095151758053035 0.023986914781790068 70.95852121076226 28.376692476336437 70.97171366228106 72.17106643359419 0.05636913253347959 162.1849083098854 0.0695627560895536 324.3734147741917 0.0347813780447768 486.5583242561144-0.0023991602930872797 6.751158538250468 0.10914128268323428 13.65343487403367-1.1525779358774555 20.21989205879727C888.8463086476232 486.29521608291583 861.6929570294187 508.7231173602129 828.6327907270247 509.04094573912744zM278.6646739890607 592.8565317994263c0.7687849552942733 101.40169823312635 60.26988705313181 190.19579857774363 151.28159091334672 226.17159042877492 143.32388329494114 56.653837967087455 303.56703995329406-40.27427370237783 321.7444332088081-195.3638101920605 5.900816197438476-50.33324724485583 1.644313205015964-56.70181179665103 2.493455379662778-107.26653405839215 0.1439226607280111-8.479425945002697-5.876829282656687-7.328047003253151-11.016056833642885-7.330444991508968-47.59512439678898-0.03238221775168952-95.19024879357796-0.008395302969899456-142.78657335653216-0.005997314714082859-27.996497650174252 0.0023991602930872797-55.995393288604326 0.0023991602930872797-83.99069077261339 0.0023991602930872797-74.19437547064445-0.0023991602930872797-148.38635178099582 0.010794463262986734-222.58072842367747-0.013192451518803333-15.24497592889988-0.005997314714082859-15.202998242013113-0.06716359579646632-15.192204950787396 14.888768017519482C278.6430850625348 561.7129324116922 278.3804268220257 555.0865067679371 278.6646739890607 592.8565317994263zM834.5012258787488-39.66185362585475c0-12.26338460655686-9.75913593566837-22.201223408960743-21.803037810693578-22.201223408960743L211.30301209811-61.86307703481566c-12.042704052934575 0-21.803037810693578 9.937838802403885-21.803037810693578 22.201223408960743l0 458.8124913890583c0 12.259786452135867 9.75913593566837 22.201223408960743 21.803037810693578 22.201223408960743l601.3951747979079 0c12.042704052934575 0 21.803037810693578-9.94023796269697 21.803037810693578-22.201223408960743L834.5012258787488-39.66185362585475zM525.5682805061323 368.6866603091386c-39.42513152773101 3.734785837862673-76.23327611950657-18.63194915835206-89.83873599193939-54.59095040344352-14.129577359323015-37.35025167873347-3.268236477633863-80.35305276004307 27.505961375163654-102.51829579683113 10.911713871545823-7.8617587872411585 14.749643677377644-17.36902977362619 14.845591336504809-29.65880045525792 0.1655104152167139-20.656457189530204 0.04557584130776354-41.31171421289524 0.04557584130776354-65.37193523781741 1.2665163671095938-21.119407223300755-2.1984137493647644-45.79489624569138 1.6635029712488503-70.178941792205 2.700943481766259-17.054799549132557 17.66646939218002-28.884018185249573 35.10266393363994-29.254618714313946 16.528284073986544-0.3550089172524885 29.75235012612927 10.45475998045209 34.05322996573164 27.591115743065103 1.320487511387257 5.254364976346241 1.5015895384158613 10.539914348353534 1.5015895384158613 15.889029161736298 0.0023991602930872797 38.46684924243824-0.04557584130776354 76.9324983187113 0.07675906493154476 115.39694840085643 0.04557584130776354 14.415023520485954 3.973455991552666 25.542620797105155 17.002028571020077 35.091869470376956 28.935590169234146 21.209358739751103 39.464710054324684 51.558986091243845 33.09854466282258 87.37766400206557C594.0333463372317 335.53534466820327 561.9806374878965 365.23971979273176 525.5682805061323 368.6866603091386z"  horiz-adv-x="1024" />

    
    <glyph glyph-name="kaisuo" unicode="&#58894;" d="M170.496-114.176c97.792 1.024 195.584 0.512 293.376 0.512h295.424c40.448 0 66.56 26.624 66.56 67.584V411.648c0 6.144 0 12.8-1.024 18.944C819.2 460.8 793.6 482.304 762.88 482.304l-593.92 1.024c-38.4-0.512-65.536-27.648-65.536-66.56 0-154.112 0.512-308.224-0.512-462.848 0.512-39.936 33.792-68.608 67.584-68.096zM161.28 398.848c0 11.264 9.216 20.992 20.48 20.992h565.248c11.264 0 20.48-9.728 20.48-20.992v-431.616c0-11.264-9.216-20.992-20.48-20.992H181.76c-11.264 0-20.48 9.728-20.48 20.992V398.848zM418.816 203.264c10.24-7.168 13.824-16.384 13.824-27.648v-61.44c1.024-19.456-2.048-43.008 1.536-66.048 2.56-15.872 16.384-27.136 32.768-27.648 15.872-0.512 28.16 9.728 32.256 26.112 1.024 5.12 1.536 10.24 1.536 14.848v107.52c0 13.312 4.096 24.064 15.872 32.768 27.136 19.456 37.376 48.64 31.232 82.432-6.144 35.84-36.864 64-70.144 66.56-37.376 3.584-71.68-17.408-84.48-51.2-14.336-34.816-3.584-75.776 25.6-96.256zM989.696 608.768c-1.536 75.776-29.696 140.288-83.456 193.024-88.576 87.04-217.088 105.472-325.12 45.568-92.672-51.2-141.824-133.12-145.408-241.664-1.024-34.816 0-28.672 0-64 0-12.288 15.36-22.016 27.648-22.016h0.512c12.288 0 26.112 9.728 26.112 22.016v56.32c0.512 95.232 56.32 178.688 142.336 212.48 134.656 53.248 285.696-37.888 302.592-183.808 3.584-28.672 3.072-54.272 3.072-80.896-0.512-14.848 11.776-26.624 26.112-26.624s26.112 11.776 26.112 26.112c0 20.992 0 35.84-0.512 63.488z"  horiz-adv-x="1024" />

    
    <glyph glyph-name="fenxiang" unicode="&#58910;" d="M786.895 301.283c-55.204 0-104.215-26.508-135.009-67.487L386.644 366.87c4.192 14.718 6.436 30.255 6.436 46.319 0 17.596-2.695 34.559-7.692 50.507L649.627 596.27c30.624-42.722 80.69-70.561 137.266-70.561 93.214 0 168.778 75.563 168.778 168.778 0 93.214-75.564 168.778-168.778 168.778-93.215 0-168.778-75.564-168.778-168.778 0-6.449 0.375-12.81 1.078-19.072L340.5 535.591c-30.262 28.739-71.171 46.378-116.201 46.378-93.214 0-168.778-75.563-168.778-168.778s75.563-168.778 168.778-168.778c46.669 0 88.911 18.942 119.463 49.556l275.921-138.431a170.212 170.212 0 0 1-1.572-23.031c0-93.215 75.563-168.778 168.778-168.778s168.778 75.563 168.778 168.778c-0.001 93.213-75.558 168.777-168.773 168.777z"  horiz-adv-x="1024" />

    
    <glyph glyph-name="wangguan" unicode="&#59052;" d="M90.352941 568.048941L421.647059 474.352941l150.588235 240.941177 150.588235-240.941177 331.294118 93.696L903.529412-7.529412H240.941176L90.352941 568.048941zM572.235294 775.529412a60.235294 60.235294 0 1 0 0 120.470588 60.235294 60.235294 0 0 0 0-120.470588zM60.235294 594.823529a60.235294 60.235294 0 1 0 0 120.470589 60.235294 60.235294 0 0 0 0-120.470589z m1024 0a60.235294 60.235294 0 1 0 0 120.470589 60.235294 60.235294 0 0 0 0-120.470589zM240.941176-67.764706h662.588236v-60.235294H240.941176v60.235294z"  horiz-adv-x="1144" />

    
    <glyph glyph-name="tubiao-duojiaoxing" unicode="&#58917;" d="M898.707017 384l87.625143-85.723429c12.678095-12.678095 16.481524-27.599238 11.410286-44.763428-5.071238-17.115429-15.896381-27.599238-32.377905-31.402667l-120.003048-30.47619 34.279619-118.101334c5.071238-17.798095 1.26781-33.01181-11.410285-45.738666-12.678095-12.678095-27.940571-16.481524-45.738667-11.410286l-118.101333 34.279619-30.476191-119.954286c-3.803429-17.798095-14.628571-28.91581-32.377905-33.353143-17.749333-4.486095-32.377905-0.341333-43.78819 12.336762L512.025112-2.681905l-85.723428-87.625143a43.885714 43.885714 0 0 0-44.763429-12.336762c-17.115429 4.388571-27.599238 15.555048-31.402666 33.304381l-30.476191 120.003048-118.101333-34.279619c-17.798095-5.071238-33.01181-1.26781-45.738667 11.410286-12.678095 12.678095-16.481524 27.940571-11.410286 45.738666l34.279619 118.101334-119.954285 30.47619c-16.579048 3.803429-27.306667 14.287238-32.426667 31.402667a42.276571 42.276571 0 0 0 11.410286 44.763428L125.343208 384 37.718065 469.723429a42.276571 42.276571 0 0 0-11.410286 44.763428c5.071238 17.115429 15.896381 27.599238 32.377905 31.402667l120.003047 30.47619-34.279619 118.101334c-5.071238 17.798095-1.26781 33.01181 11.410286 45.738666 12.678095 12.678095 27.940571 16.481524 45.738667 11.410286l118.101333-34.279619 30.476191 119.954286c3.803429 17.798095 14.628571 28.91581 32.377904 33.353143 17.749333 4.486095 32.377905 0.341333 43.788191-12.336762L512.025112 768.731429 597.748541 858.307048a42.276571 42.276571 0 0 0 44.763429 11.410285c17.115429-5.071238 27.599238-15.896381 31.402666-32.377904l30.476191-120.003048 118.101333 34.279619c17.798095 5.071238 33.01181 1.26781 45.738667-11.410286 12.678095-12.678095 16.481524-27.940571 11.410285-45.738666l-34.279619-118.101334 119.954286-30.47619c16.579048-3.803429 27.306667-14.287238 32.426667-31.402667a42.276571 42.276571 0 0 0-11.410286-44.763428L898.707017 384z"  horiz-adv-x="1024" />

    
    <glyph glyph-name="xingxingbeifen" unicode="&#58930;" d="M512-25.654468l-208.438468-93.565277-81.233702 213.547575L8.780255 175.561532 102.356426 384 8.769362 592.438468l213.547574 81.233702L303.561532 887.219745 512 793.643574 720.438468 887.230638l81.233702-213.547574 213.547575-81.233702L921.643574 384l93.576171-208.438468-213.547575-81.233702-81.233702-213.547575z"  horiz-adv-x="1024" />

    
    <glyph glyph-name="xinxi1" unicode="&#59193;" d="M484.027317-114.937756L363.145366-11.613659a35.015805 35.015805 0 0 0-4.170927 48.777366 38.812098 38.812098 0 0 0 55.320976 4.870244l60.815609-51.899317 71.255415 86.315707h467.793171c20.230244 0 36.664195 16.733659 36.664195 37.313561V784.234146c0 20.579902-16.433951 37.288585-36.664195 37.288586H134.868293c-20.230244 0-36.664195-16.733659-36.664195-37.288586v-670.645073c0-20.579902 16.433951-37.288585 36.664195-37.288585h75.176585c21.72878 0 39.261659-17.832585 39.261659-39.911025 0-19.081366-15.235122-34.566244-33.96683-34.566243H134.868293c-60.690732 0-109.892683 50.026146-109.892683 111.765853V784.234146C24.97561 845.973854 74.177561 896 134.868293 896h879.141463C1074.700488 896 1123.902439 845.973854 1123.902439 784.234146v-670.645073c0-61.739707-49.201951-111.765854-109.892683-111.765853H580.433171l-96.405854-116.760976z m-232.223219 567.071219a61.065366 61.065366 0 1 1 122.130731 0 61.065366 61.065366 0 0 1-122.130731 0m261.719414 0a61.065366 61.065366 0 1 1 122.130732 0 61.065366 61.065366 0 0 1-122.130732 0m261.74439 0a61.065366 61.065366 0 1 1 122.130732 0 61.065366 61.065366 0 0 1-122.130732 0"  horiz-adv-x="1123" />

    
    <glyph glyph-name="nan" unicode="&#58972;" d="M952.357821 445.673641h-40.932248V790.010037H590.892303v40.932248h361.465518zM915.201573 821.959703l29.901007-27.952632L689.323103 520.399553l-29.901007 27.952632zM430.902472-62.030519c-48.64593 0-95.847975 9.532097-140.294256 28.333302-42.917462 18.153452-81.45722 44.138266-114.547873 77.230965-33.089629 33.090653-59.071374 71.629387-77.223802 114.544803C80.040453 202.517669 70.509379 249.710504 70.509379 298.345178c0 48.646953 9.531074 95.848998 28.328185 140.293233 18.151405 42.918485 44.13315 81.458243 77.223802 114.548896 33.090653 33.089629 71.630411 59.072397 114.548896 77.222779 44.444235 18.797112 91.64628 28.328185 140.293233 28.328185 48.647977 0 95.848998-9.531074 140.293234-28.328185 42.917462-18.151405 81.458243-44.13315 114.547872-77.223802 33.089629-33.089629 59.072397-71.630411 77.222779-114.548896 18.797112-44.444235 28.328185-91.64628 28.328186-140.293233 0-48.63365-9.530051-95.827509-28.328186-140.266628-18.151405-42.915415-44.13315-81.45415-77.222779-114.544802-33.091676-33.092699-71.630411-59.07649-114.546849-77.230966-44.446281-18.800181-91.648326-28.332279-140.29528-28.332278z m0 679.836543c-176.151929 0-319.460846-143.308917-319.460845-319.460846 0-176.141696 143.308917-319.443449 319.460845-319.443449 176.150906 0 319.459822 143.301753 319.459822 319.443449 0 176.150906-143.307893 319.460846-319.459822 319.460846z"  horiz-adv-x="1024" />

    
    <glyph glyph-name="nv" unicode="&#58882;" d="M405.333333 281.6c-134.4 134.4-134.4 349.866667 0 484.266667s349.866667 134.4 484.266667 0c134.4-134.4 134.4-349.866667 0-484.266667S537.6 149.333333 405.333333 281.6zM849.066667 727.466667c-110.933333 110.933333-292.266667 110.933333-403.2 0-110.933333-110.933333-110.933333-292.266667 0-403.2 110.933333-110.933333 292.266667-110.933333 403.2 0 110.933333 110.933333 110.933333 290.133333 0 403.2zM403.2-57.6L49.066667 294.4c-10.666667 10.666667-10.666667 29.866667 0 40.533333s29.866667 10.666667 40.533333 0l354.133333-354.133333c10.666667-10.666667 10.666667-29.866667 0-40.533333-12.8-10.666667-29.866667-10.666667-40.533333 2.133333zM44.8-72.533333c-10.666667 10.666667-10.666667 29.866667 0 40.533333l337.066667 337.066667c10.666667 10.666667 29.866667 10.666667 40.533333 0s10.666667-29.866667 0-40.533334L85.333333-72.533333c-10.666667-10.666667-27.733333-10.666667-40.533333 0z"  horiz-adv-x="1024" />

    
    <glyph glyph-name="suo" unicode="&#58919;" d="M805.76 481.664h-68.928V608c0 132.096-109.12 224-241.28 224C363.52 832 254.4 740.096 254.4 608v-120.64H185.408A57.6 57.6 0 0 1 128 429.952v-436.48a57.6 57.6 0 0 1 57.408-57.472h620.352a57.6 57.6 0 0 1 57.408 57.408V424.192c0 34.496-22.976 57.472-57.408 57.472z m-275.712-287.232v-97.6c0-5.76-5.76-5.76-5.76-5.76h-51.648c-5.76 0-5.76 5.76-5.76 5.76v97.6c-28.736 11.52-45.952 34.496-45.952 63.232 0 40.192 34.432 74.624 74.688 74.624 40.192 0 74.624-34.432 74.624-74.624 0-28.8-17.216-51.712-40.192-63.232z m114.88 287.232H346.24V613.76c0 68.928 68.928 126.336 149.376 126.336 80.384 0 149.312-57.408 149.312-126.336v-132.096z"  horiz-adv-x="1024" />

    
    <glyph glyph-name="caidan" unicode="&#58984;" d="M108.757333 661.333333m-64 0a64 64 0 1 1 128 0 64 64 0 1 1-128 0ZM106.666667 366.08m-64 0a64 64 0 1 1 128 0 64 64 0 1 1-128 0ZM106.666667 65.024m-64 0a64 64 0 1 1 128 0 64 64 0 1 1-128 0ZM237.866667 704.768m42.666666 0l640 0q42.666667 0 42.666667-42.666667l0 0q0-42.666667-42.666667-42.666666l-640 0q-42.666667 0-42.666666 42.666666l0 0q0 42.666667 42.666666 42.666667ZM237.866667 406.101333m42.666666 0l640 0q42.666667 0 42.666667-42.666666l0 0q0-42.666667-42.666667-42.666667l-640 0q-42.666667 0-42.666666 42.666667l0 0q0 42.666667 42.666666 42.666666ZM237.866667 107.434667m42.666666 0l640 0q42.666667 0 42.666667-42.666667l0 0q0-42.666667-42.666667-42.666667l-640 0q-42.666667 0-42.666666 42.666667l0 0q0 42.666667 42.666666 42.666667Z"  horiz-adv-x="1024" />

    
    <glyph glyph-name="mao" unicode="&#59042;" d="M1000.572343 564.4288l-475.428571 182.857143c-8.4992 3.214629-17.786514 3.214629-26.285714 0l-475.428571-182.857143C9.322057 558.999771 0 545.428114 0 530.285714s9.322057-28.714057 23.427657-34.143086L73.142857 476.999314l0-169.499429C51.893029 299.927771 36.571429 279.85737099999994 36.571429 256l0-73.142857c0-23.857371 15.3216-43.927771 36.571429-51.499886L73.142857-91.42857100000003l36.571429 0L109.714286 131.357257c21.249829 7.572114 36.571429 27.642514 36.571429 51.499886l0 73.142857c0 23.857371-15.3216 43.927771-36.571429 51.499886l0 155.465143 73.142857-28.143543 0-268.072229C182.857143 104.92891399999996 330.2144 54.85714299999995 512 54.85714299999995c181.750857 0 329.142857 50.071771 329.142857 111.892114L841.142857 434.821486l159.429486 61.321143C1014.677943 501.571657 1024 515.1433139999999 1024 530.285714S1014.677943 558.999771 1000.572343 564.4288zM512 128c-139.499886 0-231.285029 31.356343-256 50.7136l0 40.142629C308.286171 186.357029 403.178057 164.57142899999997 512 164.57142899999997s203.713829 21.7856 256 54.286629l0-40.107886C743.285029 159.35634300000004 651.465143 128 512 128zM768 264.4992C744.607086 239.50080000000003 656.6784 201.14285700000005 512 201.14285700000005c-144.643657 0-232.607086 38.357943-256 63.356343l0 142.213486 242.856229-93.429029c4.2496-1.607314 8.6784-2.428343 13.143771-2.428343s8.892343 0.821029 13.143771 2.428343L768 406.714514 768 264.4992zM512 386.607543L138.464914 530.285714 512 673.963886 885.535086 530.285714 512 386.607543z"  horiz-adv-x="1024" />

    
    <glyph glyph-name="xinxi" unicode="&#58880;" d="M512 873.80992c-270.52032 0-489.82016-219.29984-489.82016-489.79968 0-270.53056 219.29984-489.82016 489.82016-489.82016s489.82016 219.2896 489.82016 489.82016C1001.82016 654.51008 782.52032 873.80992 512 873.80992zM511.98976-32.41984000000002C281.99936-32.41984000000002 95.56992 154.01984000000004 95.56992 384c0 229.96992 186.42944 416.41984 416.41984 416.41984S928.43008 613.9801600000001 928.43008 384C928.43008 154.01984000000004 741.98016-32.41984000000002 511.98976-32.41984000000002zM607.75424 167.72096c-4.38272-2.304-8.64256-4.90496-12.75904-7.65952-11.48928-7.65952-22.49728-16.128-34.46784-22.96832-6.46144-3.65568-14.35648-5.69344-21.82144-6.56384-8.82688-1.03424-16.35328 10.0864-14.53056 18.08384 8.16128 35.6352 16.29184 71.28064 25.43616 106.68032 15.80032 61.19424 32.47104 122.17344 48.49664 183.31648 3.86048 14.73536 4.7104 29.85984 1.60768 44.92288-2.38592 11.6736-7.46496 21.76-19.456 26.20416-9.75872 3.60448-20.04992 3.08224-29.14304-1.24928-16.06656-7.64928-32.512-15.18592-47.04256-25.30304-34.18112-23.78752-67.33824-49.05984-100.87424-73.79968-8.11008-5.98016-16.0768-12.16512-24.70912-18.71872 3.34848-5.74464 6.28736-11.22304 9.6768-16.39424 2.22208-3.40992 7.97696-3.86048 11.10016-1.61792 9.58464 6.84032 18.8416 14.27456 28.9792 20.19328 11.69408 6.83008 23.9616 12.81024 36.41344 18.176 8.09984 3.49184 17.89952-0.64512 18.59584-7.03488 0.6144-5.62176 0.83968-11.6224-0.4608-17.02912-12.3392-51.47648-25.38496-102.79936-37.55008-154.32704-9.34912-39.48544-18.21696-79.14496-26.25536-118.92736-3.33824-16.49664 1.3824-32.04096 12.032-45.55776 11.20256-14.22336 31.6416-19.79392 48.18944-12.66688 30.94528 13.33248 59.27936 31.27296 87.27552 49.74592 20.43904 13.48608 40.4992 27.58656 61.35808 41.84064-2.80576 6.0416-5.08928 11.4688-7.81312 16.64C617.2672 169.04192 612.90496 170.43456000000003 607.75424 167.72096zM606.48448 713.73824c-11.52 2.73408-23.13216 2.8672-34.10944-2.06848-27.82208-12.48256-38.81984-35.86048-41.29792-62.3104 0.43008-14.4384 3.21536-25.7536 10.82368-35.33824 11.14112-13.99808 25.77408-19.49696 43.6224-18.55488 15.24736 0.79872 28.09856 6.97344 38.44096 17.09056 20.25472 19.80416 27.05408 43.60192 16.88576 71.0144C634.8288 699.78112 623.16544 709.75488 606.48448 713.73824z"  horiz-adv-x="1024" />

    
    <glyph glyph-name="yinyue" unicode="&#58893;" d="M710.645849 328.66175799999996c0 12.531383 10.189039 22.729632 22.731678 22.729632 12.540592 0 22.730655-10.199272 22.730655-22.729632l0-332.062198c0-12.551849-10.190063-22.740888-22.730655-22.740888-12.542639 0-22.731678 10.189039-22.731678 22.740888L710.645849 328.66175799999996zM313.354151-3.3912299999999505c0-12.551849-10.199272-22.740888-22.731678-22.740888-12.531383 0-22.729632 10.189039-22.729632 22.740888l0 332.051965c0 12.531383 10.199272 22.729632 22.729632 22.729632 12.542639 0 22.731678-10.199272 22.731678-22.729632L313.354151-3.3912299999999505zM512 794.141328c101.912907 0 199.90042-38.068961 276.494736-107.289347l-12.373794-12.372771c-52.378846 47.230603-139.833489 101.871975-264.119918 101.871975-124.129864 0-212.315146-55.304473-265.376536-103.147012l-12.639853 13.530128C310.626022 756.032458 409.148723 794.141328 512 794.141328zM230.336555 295.969237l0-266.658736c-71.284391 2.610449-128.477883 61.412575-128.477883 133.319135l0 5.346764C104.508007 238.14334299999996 160.514466 293.45804899999996 230.336555 295.969237zM793.662422 29.301290999999992L793.662422 295.957981c71.286437-2.608402 128.478906-61.410529 128.478906-133.328345C922.141328 90.71386700000005 864.947835 31.91174000000001 793.662422 29.301290999999992zM512 831.695567c-246.864964 0-447.695567-200.828557-447.695567-447.69045l0-221.375481c0-92.679634 74.131223-168.373442 166.22041-170.90305 2.489699-30.963137 28.491858-55.40271 60.087397-55.40271 33.245105 0 60.285918 27.040812 60.285918 60.295127L350.898157 328.66175799999996c0 33.235896-27.040812 60.285918-60.285918 60.285918-31.595539 0-57.597698-24.44162-60.087397-55.403733-50.600344-1.403973-97.455394-24.964528-128.675381-64.325922L101.849462 384.005117c0 101.922117 38.059751 199.898373 107.288324 276.491666l24.026158-24.026158c3.558029-3.547795 8.863861-5.594404 14.557525-5.594404 6.029308 0 11.246113 2.284015 15.951265 6.988144 64.148891 64.138658 154.657073 100.932582 248.327265 100.932582 93.660983 0 184.168142-36.792901 248.317032-100.932582 4.704129-4.704129 9.912747-6.988144 15.951265-6.988144 5.691618 0 10.990287 2.045585 14.557525 5.594404l24.024112 24.014902c69.220386-76.582036 107.290371-174.558292 107.290371-276.480409l0-115.234281c-32.278083 39.590614-79.161786 63.330247-128.675381 64.76185-2.491746 30.983603-28.493904 55.413967-60.099676 55.413967-33.235896 0-60.284894-27.039789-60.284894-60.285918l0-332.062198c0-33.247152 27.038766-60.295127 60.284894-60.295127 31.605772 0 57.597698 24.449806 60.099676 55.40271 92.088164 2.539841 166.22962 78.242859 166.22962 170.922493L959.694544 384.005117C959.695567 630.8670099999999 758.864964 831.695567 512 831.695567z"  horiz-adv-x="1024" />

    
    <glyph glyph-name="laoshi" unicode="&#58906;" d="M311.6 303.2c-80.4 0-145.7 65.4-145.7 145.7s65.4 145.7 145.7 145.7S457.3 529.3 457.3 449s-65.4-145.8-145.7-145.8z m0 243.6c-53.9 0-97.8-43.9-97.8-97.8s43.9-97.8 97.8-97.8 97.8 43.9 97.8 97.8-43.9 97.8-97.8 97.8zM556.5-6.6h-47.9V137.7c0 56.4-45.9 102.3-102.3 102.3H216.8c-56.4 0-102.3-45.9-102.3-102.3v-144.3H66.6V137.7C66.6 220.6 134 288 216.8 288h189.4c82.8 0 150.2-67.4 150.2-150.2v-144.4zM957.4 97.3H657.8v47.9h251.7V736.5H272.4v-107.9h-47.9V784.4h732.9zM510.715 3.264l184.668 411.903 43.709-19.596-184.668-411.903z"  horiz-adv-x="1024" />

    
    <glyph glyph-name="ke" unicode="&#59065;" d="M181.774602 93.11514399999999c0-15.157394 12.186849-27.344243 27.344243-27.344242h362.177923v54.688485H209.118845c-15.081226 0-27.344243-12.186849-27.344243-27.344243zM753.413995 651.653675L574.114977 755.165724c-5.484082 3.199048-12.339185-0.761678-12.339185-7.083606v-207.0241c0-6.24576 6.855103-10.282654 12.339185-7.083606L753.413995 637.4864620000001c5.484082 3.046712 5.484082 10.968164 0 14.167213zM170.425599 93.11514399999999c0-21.326986 17.442428-38.769414 38.769414-38.769414h606.14341c21.326986 0 38.769414 17.442428 38.769413 38.769414s-17.442428 38.769414-38.769413 38.769414H209.195013c-21.326986 0-38.769414-17.442428-38.769414-38.769414z m644.912824 15.99524c8.759298 0 15.99524-7.159774 15.995239-15.99524 0-8.759298-7.159774-15.99524-15.995239-15.995239H582.798107v31.914311h232.540316z m-255.390658-31.914311H209.118845c-8.759298 0-15.99524 7.159774-15.99524 15.995239 0 8.759298 7.159774 15.99524 15.99524 15.99524H559.947765v-31.914312zM954.877845 896H361.378292c-37.398393 0-67.941684-30.467123-67.941684-67.941684v-373.831598c0-37.398393 30.467123-67.941684 67.941684-67.941684h134.664683v-120.725974c0-7.769116 4.798572-14.852722 12.110681-17.594764 2.132699-0.837846 4.417733-1.294853 6.702767-1.294852 5.255579 0 10.358822 2.208866 14.014877 6.24576l120.268967 133.36983h305.889914c37.398393 0 67.941684 30.467123 67.941684 67.941684V827.90598c-0.152336 37.474561-30.543291 67.941684-68.09402 67.941684z m30.314788-441.697114c0-16.756918-13.55787-30.314787-30.314788-30.314787H640.685641c-5.331747 0-10.358822-2.285034-14.014877-6.169593L533.517536 314.611128v90.63969c0 10.358822-8.454627 18.813448-18.813449 18.813449H361.378292c-16.756918 0-30.314787 13.55787-30.314788 30.314787V827.982148c0 16.756918 13.55787 30.314787 30.314788 30.314787h593.499553c16.756918 0 30.314787-13.55787 30.314788-30.314787v-373.679262zM759.126581 661.403154L579.827563 764.915204c-6.169592 3.503719-13.481702 3.503719-19.575127 0-6.169592-3.503719-9.825647-9.901815-9.825647-16.985421v-207.0241c0-7.083606 3.656055-13.481702 9.825647-16.985421 3.046712-1.828027 6.398096-2.589705 9.825647-2.589706 3.427551 0 6.702767 0.914014 9.825647 2.589706l179.299019 103.51205c6.169592 3.503719 9.825647 9.901815 9.825647 16.985421 0 7.083606-3.732223 13.481702-9.825647 16.985421zM573.200963 546.465933V742.445701l169.625707-97.9518-169.625707-98.027968z m-458.682535-602.030348H909.558a59.030051 59.030051 0 0 1 59.030051 59.03005V332.35822700000006c0 10.358822-8.454627 18.813448-18.813449 18.813448s-18.813448-8.454627-18.813448-18.813448v-328.740256c0-11.882178-9.597144-21.403154-21.403154-21.403154H114.518428c-11.882178 0-21.403154 9.597144-21.403153 21.403154V550.04582c0 11.882178 9.597144 21.403154 21.403153 21.403154h124.153526c10.358822 0 18.813448 8.454627 18.813449 18.813448s-8.454627 18.813448-18.813449 18.813448h-124.153526a59.030051 59.030051 0 0 1-59.03005-59.03005v-546.427849c0-32.599821 26.430229-59.182386 59.03005-59.182386z m889.487653-34.808688H19.689508c-10.358822 0-18.813448-8.454627-18.813448-18.813449s8.454627-18.813448 18.813448-18.813448H1004.006081c10.358822 0 18.813448 8.454627 18.813448 18.813448s-8.454627 18.813448-18.813448 18.813449z"  horiz-adv-x="1024" />

    
    <glyph glyph-name="huaban" unicode="&#59018;" d="M608.056445 714.652367c11.343258 0 70.154801 107.291329 83.159811 124.270091 4.479503 5.924504 5.418754 7.225005 1.950752 11.487759s-11.126508 3.179002-19.579765 0.7225c-15.822762-4.624003-35.330276 0-57.294292 6.213505-44.072532 12.788259-107.652579 30.489522-133.229097-15.967262-2.456502-4.479503-0.794751-1.156001 4.190503-6.574755 13.36626-14.883511 69.865801-120.151838 81.353559-120.151838zM608.056445 697.962605H568.607916c-14.450011 0-23.047767 10.765258-66.253298 82.36506-10.404008 17.195513-23.264517 38.509278-27.45502 43.350032a17.412263 17.412263 0 0 0-8.814507 10.259508 18.785014 18.785014 0 0 0 2.239752 15.461511c32.368024 58.667043 107.580329 36.992027 152.519862 23.987017 16.834262-4.840754 36.125026-9.753757 48.046285-6.213504 7.225005 2.095252 26.010019 7.225005 37.208777-6.285755s2.673252-26.371269-1.661751-32.079023-13.29401-20.808015-23.409017-37.714528c-48.624286-80.920059-58.161293-93.130318-72.972554-93.130318z m-34.246525 33.307274h28.900021c10.259508 11.487758 35.547026 53.537289 49.563537 76.946307 5.996754 9.970507 10.982008 18.207013 15.028011 24.781768a149.77436 149.77436 0 0 0-55.777041 8.308756c-45.228533 13.07726-87.494814 22.686517-108.375079 0 5.924504-8.092006 14.450011-22.180766 27.52727-43.711282a726.980032 726.980032 0 0 1 43.133281-66.253299zM516.515628 278.334298m-395.93029 0a395.93029 395.93029 0 1 1 791.86058 0 395.93029 395.93029 0 1 1-791.86058 0ZM144.861356 714.652367h33.307274v-99.994073h-33.307274zM111.554082 681.345093h99.994073v-33.307275H111.554082zM311.542228 831.336203h33.307275v-99.994074h-33.307275zM278.234954 797.956678h99.994073v-33.307274H278.234954zM344.054752 436.923164z m495.057363 72.250053c-14.450011 60.328794-44.000282 123.54759-177.662881 204.539899a139.370352 139.370352 0 0 1-126.798842 5.780005c-137.275101-73.406054-167.692373-149.55761-181.781134-209.958654a326.859239 326.859239 0 0 1-8.742256-72.250053c0-141.321104 112.132082-255.909687 250.346433-255.909687S844.819869 296.324561 844.819869 437.428914a344.271502 344.271502 0 0 1-5.635504 72.105553zM594.473435 164.684964c-146.956608 0-266.602695 121.958089-267.325195 271.9492v0.79475A345.066253 345.066253 0 0 0 336.612997 513.07472c15.750512 67.409299 50.575037 146.306357 190.017639 220.868411 34.463275 18.423763 96.453821 22.686517 143.488605-5.852254C800.675086 649.266069 838.606364 585.324772 855.368376 513.07472a356.987511 356.987511 0 0 0 6.141255-75.934806c0-150.13561-119.790588-272.45495-267.036196-272.45495zM360.744514 437.284414c0-131.928597 104.907077-239.219925 233.728921-239.219925s233.728921 107.363579 233.728922 239.364425a316.816482 316.816482 0 0 1-5.274254 68.4208c-11.993509 51.297538-36.125026 112.854583-170.004375 194.063642a122.24709 122.24709 0 0 1-110.470331 4.913004c-127.376843-68.1318-158.588866-135.90235-173.400127-198.976646a310.675228 310.675228 0 0 1-8.308756-68.49305zM824.373104 325.947082l-98.043322-46.529034-5.346504-2.023001a38.726028 38.726028 0 0 1-35.258026 20.591265H585.731179c-22.903267 0-57.800042 33.307274-85.399563 33.307274H402.360545c-40.243279 0-76.296056-32.946024-96.526071-51.875538-31.356523-31.356523-93.925069-94.575319-93.925069-94.575319l153.170112-153.386862c25.070768 25.070768 54.54879 49.852537 80.125309 49.852536h199.626896a117.839836 117.839836 0 0 1 84.315812 31.645523l166.175122 166.175122 47.107034 117.839836c-28.972271 28.466521-94.503069-2.239752-118.056586-71.021802zM364.718267 7.9746L187.850138 184.842729l11.704508 11.776759S262.701192 260.199534 294.057715 291.267057c21.675016 20.085515 60.906795 56.716292 108.37508 56.716292h97.898821c18.785014 0 36.992027-10.115007 54.62104-19.941015 11.343258-6.285755 24.131518-13.43851 30.706273-13.43851h100.066323a55.704791 55.704791 0 0 0 40.74903-16.689762l84.604812 40.098779c16.834262 42.916531 50.575037 75.573555 86.700064 84.026812a58.594793 58.594793 0 0 0 55.921541-13.58301l7.803005-7.803006-52.453538-131.206096L740.996543 101.249418a133.951598 133.951598 0 0 0-96.092571-36.558527H444.843576c-15.533761 0-38.509278-15.100261-68.34855-44.939533zM235.101672 184.914979l130.050095-130.050095c23.553517 21.675016 51.947788 43.350032 79.908559 43.350032h199.771396a101.150074 101.150074 0 0 1 72.250053 26.804769l163.42962 163.42962L921.549425 390.24963a34.246525 34.246525 0 0 1-16.111762 0c-22.542017-5.202004-51.442038-28.900021-65.025047-69.071051l-2.239752-6.647005-95.51457-45.300783a85.544063 85.544063 0 0 0 2.528752-20.952515c0-39.159529-24.348268-66.325549-59.172794-66.325549H511.530375V214.682001h174.122627c23.987018 0 25.865519 24.998518 25.865519 32.729274 0 5.924504-1.228251 33.957525-25.865519 33.957525H585.731179c-15.244761 0-30.634022 8.525506-46.962534 17.629013-13.29401 7.225005-28.322021 15.750512-38.437029 15.750511H402.360545c-34.318775 0-67.409299-30.850773-85.182813-47.396034zM94.864319 131.399365L194.843943 231.371763l216.670683-216.670683-99.979623-99.979624zM311.542228-108.853736L71.310802 131.37769 195.075143 254.92528 435.089819 14.549354zM118.490087 131.37769l193.052141-193.052141L387.982784 14.549354 195.075143 207.745996zM183.074409 136.240119l23.553517 23.553517 33.307275-33.307275-23.553518-23.553517zM611.524448 397.980385H578.000423A50.069287 50.069287 0 0 0 528.220137 448.049672h33.307274A16.689762 16.689762 0 0 1 578.000423 431.35991h33.307275A16.689762 16.689762 0 0 1 628.21421 448.049672v9.248007a16.617512 16.617512 0 0 1-11.415508 15.822761L562.394412 491.399704a49.924787 49.924787 0 0 0-34.174275 47.396034v9.175757A50.069287 50.069287 0 0 0 578.000423 597.968532h33.307275a50.069287 50.069287 0 0 0 49.997036-49.997037h-33.090524a16.689762 16.689762 0 0 1-16.689762 16.689762H578.000423a16.689762 16.689762 0 0 1-16.689762-16.689762v-9.320257a16.617512 16.617512 0 0 1 11.415508-15.822761l54.40429-18.134764a49.924787 49.924787 0 0 0 34.174275-47.396034V448.049672a50.069287 50.069287 0 0 0-49.780286-50.069287zM578.217173 631.348056h33.307275v-49.997036h-33.307275zM578.217173 414.670147h33.307275v-49.997036h-33.307275z"  horiz-adv-x="1024" />

    
    <glyph glyph-name="mingxi" unicode="&#59027;" d="M161.061069 838.4512h538.8288a129.6384 129.6384 0 0 0 125.3376-134.3488v-646.5536a129.6384 129.6384 0 0 0-125.3376-134.3488H161.061069a129.6384 129.6384 0 0 0-125.1328 134.3488V704.1024a129.6384 129.6384 0 0 0 125.1328 134.3488zM125.425869 838.4512h538.8288a129.4336 129.4336 0 0 0 125.1328-134.3488v-646.5536a129.4336 129.4336 0 0 0-125.1328-134.3488H125.425869A129.6384 129.6384 0 0 0 0.088269 57.5488V704.1024a129.6384 129.6384 0 0 0 125.3376 134.3488zM612.440269 552.5504H212.875469a34.2016 34.2016 0 0 1-33.792-34.2016 32.9728 32.9728 0 0 1 33.792-33.9968H612.440269a34.2016 34.2016 0 0 1 0 68.1984zM592.574669 571.8016H194.853069a34.4064 34.4064 0 0 1-33.792-34.2016 32.9728 32.9728 0 0 1 33.792-34.2016h397.7216a34.2016 34.2016 0 0 1 33.792 34.2016 35.4304 35.4304 0 0 1-33.792 34.2016zM610.597069 343.04H212.875469a34.2016 34.2016 0 0 1-33.792-34.2016 32.9728 32.9728 0 0 1 33.792-33.9968h397.7216a34.2016 34.2016 0 0 1 0 68.1984zM592.574669 360.448H194.853069a34.2016 34.2016 0 0 1-33.792-33.9968 32.9728 32.9728 0 0 1 33.792-34.2016h397.7216a34.2016 34.2016 0 0 1 33.792 34.2016 35.4304 35.4304 0 0 1-33.792 33.9968zM282.507469 725.4016a62.6688 62.6688 0 0 0-67.584 55.5008v2.048a62.6688 62.6688 0 0 0 67.584 55.5008h363.7248a106.2912 106.2912 0 0 0-33.792-91.7504 94.6176 94.6176 0 0 0-55.7056-20.48zM535.025869 755.0976H264.485069a68.8128 68.8128 0 0 0-65.536 70.4512A66.1504 66.1504 0 0 0 264.485069 896h270.5408a68.8128 68.8128 0 0 0 65.536-70.4512v-2.048a72.4992 72.4992 0 0 0-20.48-49.152 61.44 61.44 0 0 0-45.6704-19.2512zM594.008269 87.04A214.8352 214.8352 0 1 1 809.253069 302.08 214.8352 214.8352 0 0 1 594.008269 87.04zM558.782669 87.04A214.8352 214.8352 0 1 1 773.617869 302.08a215.04 215.04 0 0 1-214.8352-215.04zM693.950669 28.672h69.632v34.2016h-69.632a24.3712 24.3712 0 0 0-27.8528 24.1664c0 12.0832 10.0352 20.48 27.8528 20.48h49.7664S706.033869 158.72 693.950669 179.2c-11.8784 26.2144 39.936 36.2496 53.6576 14.1312s43.8272-70.2464 43.8272-70.2464 23.9616 52.224 39.7312 78.2336 65.7408-3.8912 49.7664-30.1056c-13.9264-22.1184-40.96-64.3072-40.96-64.3072h48.9472c20.48 0 25.8048-5.9392 25.8048-20.48s-5.9392-24.1664-25.8048-24.1664H819.288269v-34.2016h69.632c20.48 0 27.8528-5.9392 27.8528-20.48s-10.0352-22.1184-27.8528-22.1184H819.288269v-3.8912c0-28.2624-10.0352-42.1888-27.8528-42.1888h-20.48c-10.0352 0-7.9872 23.9616-7.9872 42.1888v3.8912h-69.632c-20.48 0-27.8528 10.0352-27.8528 22.1184s7.9872 20.48 27.8528 20.48zM675.928269 48.9472h69.632V82.944H675.928269a24.3712 24.3712 0 0 0-27.8528 24.1664c0 12.0832 10.0352 20.48 27.8528 20.48h49.7664l-37.888 61.44c-11.8784 26.2144 27.8528 46.2848 40.96 26.2144 13.9264-24.1664 43.8272-70.2464 43.8272-70.2464s31.744 50.176 47.7184 76.1856 55.7056-3.8912 40.96-30.1056c-13.9264-22.1184-40.96-64.3072-40.96-64.3072h49.5616c20.48 0 27.8528-5.9392 27.8528-20.48s-9.8304-24.1664-27.8528-24.1664h-68.4032v-33.9968h69.4272c20.48 0 27.8528-6.144 27.8528-20.48s-9.8304-22.1184-27.8528-22.1184h-69.4272v-3.8912c0-28.2624-10.0352-42.1888-27.8528-42.1888s-27.8528 13.9264-27.8528 42.1888v3.8912H675.928269c-20.48 0-27.8528 10.24-27.8528 22.1184s7.9872 20.48 27.8528 20.48z"  horiz-adv-x="1024" />

    
    <glyph glyph-name="wode" unicode="&#59265;" d="M481-13.7l-347.9-0.5c-9.2 0-16.8 6.8-17.7 15.9-1 10.2-1.6 20.6-1.6 31 0 85.2 34.9 165.4 98.3 225.8 63.7 60.7 148.5 94.2 238.8 94.2h0.1c66.8 0 130.5-18.1 185.5-52.7 11.1-7 25.7-4 33.4 6.6 8.5 11.7 5.3 28.2-6.9 35.8-24.2 15.2-50.1 27.6-77.2 37.3 21.7 11.2 41.9 25.8 59.7 43.7 43.9 43.9 69 103.4 69.8 165.4 0.9 65-24 126.2-69.9 172.1-45.1 45.1-105 69.9-168.8 69.9-63.8 0-123.7-24.8-168.8-69.9-45.1-45.1-69.9-105-69.9-168.8 0-63.8 24.8-123.7 69.9-168.8 12.8-12.8 26.8-24 41.7-33.4-16.6-4.3-32.9-9.7-48.9-16.1-46.1-18.6-87.5-45.2-123-79-35.6-34-63.6-73.5-83.2-117.6-20.3-45.7-30.6-94.3-30.6-144.4 0-12 0.6-24.1 1.8-36 3.5-34.7 32.5-60.9 67.5-60.9h0.1l347.9 0.5c13.8 0 25 11.2 25 25-0.1 13.8-11.3 25-25.1 24.9zM287.9 592c0 104.1 84.7 188.7 188.7 188.7 104.1 0 188.7-84.7 188.7-188.7 0-104.1-84.7-188.7-188.7-188.7-104.1 0-188.7 84.7-188.7 188.7zM934.3-13.2H601.1c-13.8 0-25-11.2-25-25s11.2-25 25-25h333.2c13.8 0 25 11.2 25 25s-11.2 25-25 25zM934.3 244H601.1c-13.8 0-25-11.2-25-25s11.2-25 25-25h333.2c13.8 0 25 11.2 25 25s-11.2 25-25 25zM934.3 115.4H601.1c-13.8 0-25-11.2-25-25s11.2-25 25-25h333.2c13.8 0 25 11.2 25 25s-11.2 25-25 25z"  horiz-adv-x="1024" />

    
    <glyph glyph-name="danci" unicode="&#58881;" d="M585.831761 193.00208999999995h-152.825632l-43.300596-81.507004a31.583964 31.583964 0 0 0-38.206408-12.735469c-15.282563 5.094188-22.923845 20.376751-15.282564 30.565127L486.4951 396.7696a35.149895 35.149895 0 0 0 40.753502 12.73547 25.470939 25.470939 0 0 0 15.282563-12.73547l150.278539-267.444856c7.641282-12.735469 0-25.470939-12.735469-33.112221A38.206408 38.206408 0 0 0 639.320733 106.40089899999998l-53.488972 86.601191z m-25.470939 48.394784L511.966039 327.998066l-50.941878-86.601192zM211.408961 896h779.410726c15.282563 0 30.565127-10.188376 30.565127-22.923845a28.782161 28.782161 0 0 0-30.565127-25.470939H211.408961C129.901957 847.605216 61.130423 794.116245 61.130423 725.34471s66.224441-122.260506 150.278538-122.260506h779.410726a28.527451 28.527451 0 0 0 30.565127-25.470938v-680.074065a28.782161 28.782161 0 0 0-30.565127-25.470939H211.408961c-114.619224 0-208.861698 76.412816-208.861697 170.65529V727.891804C2.547264 822.134278 96.789737 896 211.408961 896zM61.130423 608.178392v-560.360652c0-66.224441 66.224441-122.260506 150.278538-122.260507h748.8456V557.236515H211.408961a238.153277 238.153277 0 0 0-150.278538 50.941877z m150.278538 94.242473a28.527451 28.527451 0 0 0-30.565126 25.470939 28.782161 28.782161 0 0 0 30.565126 25.470939h718.280473a28.527451 28.527451 0 0 0 30.565127-25.470939c0-15.282563-12.735469-25.470939-30.565127-25.470939H211.408961z"  horiz-adv-x="1024" />

    
    <glyph glyph-name="huiben" unicode="&#59166;" d="M88 384c0-84 44.8-161.6 117.6-204 72.8-42.4 162.4-42.4 235.2 0 72.8 42.4 117.6 120 117.6 204 0 130.4-105.6 235.2-235.2 235.2S88 514.4 88 384zM590.4 163.2c-12-8-17.6-23.2-12.8-37.6 4-14.4 17.6-23.2 32-23.2 6.4 0 13.6 1.6 19.2 5.6 21.6 15.2 33.6 40 32 66.4-1.6 20-10.4 37.6-25.6 50.4-15.2 12.8-34.4 19.2-53.6 17.6-20-1.6-37.6-10.4-50.4-25.6-12.8-15.2-19.2-34.4-17.6-53.6 1.6-17.6 16-31.2 33.6-31.2h2.4c18.4 1.6 32 17.6 31.2 36 0 1.6 0.8 4 1.6 4.8 1.6 1.6 3.2 2.4 4.8 2.4 1.6 0 4-0.8 4.8-1.6 0.8-0.8 2.4-2.4 2.4-4.8-0.8-1.6-2.4-4-4-5.6zM889.6 680l62.4 107.2c12 20.8 4.8 47.2-16 58.4-20.8 12-47.2 4.8-58.4-16l-281.6-488c-12-20.8-4.8-47.2 16-58.4 20-12 46.4-4.8 58.4 16l172 298.4c44.8-68.8 66.4-148.8 63.2-232-1.6-47.2-13.6-94.4-34.4-139.2-20-44-48-84-83.2-119.2-34.4-34.4-74.4-62.4-119.2-83.2-44.8-20.8-92-32.8-139.2-34.4-6.4 0-12.8-0.8-19.2-0.8-45.6 0-89.6 8-132 23.2-5.6 1.6-8.8 5.6-11.2 11.2-1.6 4-2.4 10.4 1.6 16.8l59.2 102.4c17.6 31.2 22.4 67.2 13.6 101.6-9.6 34.4-31.2 63.2-62.4 80.8-20 12.8-43.2 19.2-66.4 19.2-48 0-92-25.6-116-67.2l-33.6-58.4c-2.4-4.8-8-2.4-8.8 0-21.6 45.6-33.6 94.4-36 145.6-3.2 54.4 5.6 108 24.8 159.2 18.4 48.8 46.4 93.6 83.2 131.2 36.8 38.4 79.2 68.8 128 90.4 49.6 21.6 102.4 32.8 156.8 32.8h1.6c59.2 0 118.4-13.6 172-40l9.6-4.8c20-10.4 44-4 56 14.4l1.6 2.4c5.6 10.4 7.2 22.4 4 33.6-3.2 11.2-11.2 20.8-21.6 26.4C665.6 845.6 589.6 864 512.8 864H512c-130.4 0-256.8-54.4-348-149.6C72.8 617.6 25.6 492 32.8 360c3.2-61.6 17.6-120.8 43.2-176.8 15.2-32.8 46.4-52.8 82.4-52.8 32.8 0 62.4 16.8 79.2 45.6l33.6 58.4c12.8 22.4 41.6 30.4 64.8 17.6 11.2-6.4 19.2-16 22.4-28.8 3.2-12.8 1.6-26.4-4.8-37.6l-59.2-101.6c-16-27.2-18.4-59.2-8-88.8 10.4-29.6 33.6-52 63.2-62.4 52-18.4 106.4-28 160.8-28 8 0 15.2 0 23.2 0.8 241.6 11.2 447.2 216 457.6 457.6 5.6 114.4-31.2 227.2-101.6 316.8z"  horiz-adv-x="1024" />

    
    <glyph glyph-name="liwu" unicode="&#58885;" d="M905.63591585 692.59931497h-34.5010631c17.49447111 29.66353541 25.17310578 57.95688297 22.71914666 84.2016237-2.03525689 21.96426903-12.44455822 53.37785837-50.59136474 78.413824-31.62718815 20.80525275-72.2983443 25.90856533-117.4198803 14.63637333-73.17337125-18.37192533-159.77434075-81.53163852-216.71420207-157.86166045-56.97627022 76.3288083-143.50684918 139.48973511-216.67900682 157.86166045-45.15915852 11.34622341-85.86550992 6.20650192-117.48784356-14.63637333-38.11403852-25.03596563-48.52576711-56.44955497-50.55981037-78.41503764-2.45274548-26.24352711 5.15307141-54.53687467 22.71914667-84.20041006h-34.49984947c-52.23947378 0-94.7529197-42.5450003-94.75291972-94.82331022V475.64117333c0-41.35442963 27.27632592-77.90409955 66.7399206-90.17874963-3.75011555-10.37653333-5.7137683-21.10501925-5.7137683-31.97549985v-366.42269867c0-52.24190103 42.56199111-94.80510578 94.80510578-94.80510577h670.96484978c52.24068741 0 94.73592889 42.56199111 94.73592889 94.80510577V353.48813748a93.28928237 93.28928237 0 0 1-5.64337778 32.01190874c39.40412682 12.34261333 66.61613037 48.89228325 66.61613037 90.14234075V597.74445037c-0.00242725 52.27345541-42.49645511 94.85365097-94.73714252 94.85365096m-60.9727526-732.81262933h-301.80541628V380.80087230000004h301.80662992c15.04293925 0 27.24113067-12.26979555 27.24113066-27.31273482v-366.42269866c-0.00121363-15.04293925-12.19940503-27.27875318-27.2423443-27.27875319M580.02394075 692.60174222c47.99905185 55.36335645 111.00099318 98.87197867 162.15790933 111.706112 26.574848 6.66039941 48.3121683 4.83631408 64.05537184-5.54143289 16.72624355-10.99062992 19.70206341-20.78947555 20.37198697-28.18897541 2.66027615-27.13675852-26.43892148-63.7216237-40.18206341-77.9757037H580.02394075z m352.81912414-94.85729185v-122.10327704c0-15.04172563-12.16542341-27.27389867-27.20593541-27.27389866h-362.77816889V625.03776711h362.77816889c15.040512 0 27.20593541-12.255232 27.20593541-27.29453036m-457.47768889-216.94236445v-421.01418667H173.69831348c-15.07813452 0-27.27996682 12.23702755-27.27996681 27.27875319V353.48813748c0 15.04293925 12.2018323 27.31273482 27.27996681 27.31273482h301.66584889zM191.65032297 770.5762323c0.66385541 7.39949985 3.68093867 17.19955911 20.33557806 28.1889754 15.63519052 10.37774697 37.37372445 12.29042725 64.09178075 5.54143289 50.87292682-12.76252918 113.80690489-56.27357867 161.91032889-111.70732562H231.75956859c-12.30620445 12.4639763-42.80957155 50.18965333-40.108032 77.9757037M85.34364918 597.74445037c0 15.03808475 12.2018323 27.29453037 27.27632593 27.29453038h362.74297364v-176.67170608H112.61997511c-15.07449363 0-27.27632592 12.23338667-27.27632593 27.2751123V597.74445037z"  horiz-adv-x="1024" />

    
    <glyph glyph-name="xin" unicode="&#58892;" d="M519.949376-150.757171 82.324346 259.510844C37.590684 313.512758 12.956624 382.128509 12.956624 452.693658c0 164.353209 132.394773 298.063513 295.128778 298.063513 75.858826 0 147.747057-28.804023 201.928278-80.017428 54.185314 51.213405 126.071499 80.017428 201.932371 80.017428 162.736052 0 295.130825-133.711328 295.130825-298.063513 0-70.565149-24.634061-139.180899-69.367722-193.182814l-2.956456-3.096525L593.023669-56.846314l-41.747529 46.447868 340.092693 311.776839c34.06934 41.915645 53.575398 96.944959 53.575398 151.315264 0 129.758296-104.517719 235.313354-232.998181 235.313354-69.215243 0-134.154933-30.243815-178.176344-82.972736l-23.756027-28.453029-23.749887 28.453029c-44.023457 52.728922-108.961101 82.972736-178.178391 82.972736-128.482509 0-232.998181-105.555058-232.998181-235.313354 0-54.43375 19.537782-109.50502 53.684896-151.439084l433.442603-405.991618L519.949376-150.757171zM485.427716 52.750803l-312.863419 293.699112c-22.783845 30.441313-35.344433 68.171636-35.344433 106.242719 0 95.15008 76.648851 172.561148 170.865538 172.561148l0-62.748113c-59.948817 0-108.730847-49.269124-108.730847-109.813035 0-23.289426 7.719123-47.292096 21.248822-66.319451l307.08252-287.602254L485.427716 52.750803zM616.930128 499.51094l-54.426825 30.269397c21.99382 40.324404 58.277687 69.583798 102.175273 82.407871 43.883258 12.822027 90.015838 7.614421 129.937712-14.570857l-29.972873-54.964846c-25.360639 14.108323-54.745086 17.403369-82.699915 9.252735C654.004021 543.74028 630.897821 525.125317 616.930128 499.51094z"  horiz-adv-x="1024" />

    
    <glyph glyph-name="tishi" unicode="&#58899;" d="M969.680358 27.284407H79.934592c-5.780806 0-11.162936 2.990072-14.153007 7.873857-3.089741 4.883784-3.388748 11.063266-0.797353 16.246058L190.367919 304.962429V558.121861c0 186.281487 150.001947 337.878139 334.489391 337.878139 184.387775 0 334.389722-151.596652 334.389721-337.977808v-253.159432l125.383687-253.458438c2.591396-5.182792 2.292389-11.362274-0.797352-16.246058-2.990072-4.883784-8.372202-7.873856-14.153008-7.873857z m-862.835118 33.389138h835.92447L827.552268 293.600156c-1.09636 2.292389-1.694374 4.883784-1.694374 7.375511V558.022192c0 167.942379-135.051587 304.58867-301.000584 304.58867s-301.000584-136.646292-301.000584-304.58867V300.975667c0-2.591396-0.598014-5.083122-1.694374-7.375511L106.84524 60.673545zM524.85731-128c-99.868406 0-186.281487 70.964376-205.417949 168.739731-0.996691 4.883784 0.299007 9.966907 3.488418 13.854001 3.18941 3.887094 7.873856 6.079813 12.85731 6.079813h378.044773c4.983453 0 9.767569-2.192719 12.85731-6.079813s4.485108-8.970216 3.488417-13.854001c-19.136461-97.775355-105.449873-168.739731-205.318279-168.739731z m-167.444034 155.284407c23.023555-71.66206 90.499513-121.89527 167.444034-121.895269s144.420479 50.133541 167.444033 121.895269h-334.888067z"  horiz-adv-x="1024" />

    
    <glyph glyph-name="jinbi" unicode="&#58884;" d="M661.6 409.2c0-18-12.7-32.7-28.3-32.7h-93.7v-75h93.2c15.6 0 28.3-14.7 28.3-32.7 0-18-12.7-32.7-28.3-32.7h-93.2v-119.7c0-18-12.7-32.7-28.3-32.7-15.6 0-28.3 14.7-28.3 32.7V236.10000000000002h-93.2c-15.6 0-28.3 14.7-28.3 32.7 0 18 12.7 32.7 28.3 32.7H483v75h-93.2c-15.6 0-28.3 14.7-28.3 32.7s12.7 32.7 28.3 32.7h62.5l-74.1 85.6c-11.1 12.8-11.1 33.5 0 46.3 11.1 12.8 29 12.8 40.1 0l93.9-108.5 92 106.3c11.1 12.8 29 12.8 40.1 0 11.1-12.8 11.1-33.5 0-46.3l-72.2-83.4h61.1c15.7 0 28.4-14.7 28.4-32.7z m304.1-235.7c-4.1-9.2-11.7-15.8-20.6-19.3-5.4-2.9-11.4-4.1-17.1-4.1-12.4 0-24.4 5.7-31.7 16.8L819.5 281c-11.7 17.8-7 41.2 10.5 52.9 17.4 11.7 41.2 7 53-10.5l37.1-55.2c10.5 37.4 15.9 76.1 15.9 115.7 0 233.7-190.3 423.9-424 423.9S88 617.6 88 383.9 278.3-40 512-40c66 0 129.4 14.6 188.1 43.7 19 9.5 41.5 1.9 51.1-17.1 9.5-19 1.6-41.8-17.1-51-69.1-34.2-143.7-51.7-221.7-51.7C236.5-116 12 108.5 12 384S236.2 884 512.2 884c275.6 0 500.2-224.5 499.8-500.3 0-73.3-15.5-144-46.3-210.2z"  horiz-adv-x="1024" />

    
    <glyph glyph-name="bianji" unicode="&#58890;" d="M329.398601 328.69847a13.045489 13.045489 0 0 1-1.843384-3.084124l-53.174548-195.292391a33.110019 33.110019 0 0 1 8.649726-32.152877 33.145468 33.145468 0 0 1 23.467701-9.252371c3.084124 0 5.565603 0.602645 8.649726 1.24074l194.051652 53.139098h0.602645a7.798934 7.798934 0 0 1 6.168247 2.481479L1034.528561 664.265319c15.456069 15.456069 24.105795 36.47774 24.105795 59.342796 0 25.94918-11.131205 51.898359-30.274043 71.076646l-48.814235 48.814235c-19.142837 19.142837-45.127467 30.274043-71.076646 30.274043-22.865056 0-43.886727-8.649727-59.342796-24.105795L330.639341 330.541854c-0.638095-0.602645-0.638095-1.240739-1.24074-1.843384M983.835491 714.320294l-51.295714-51.295715-83.413141 84.653881 50.657619 50.65762c8.047082 8.047082 23.467701 6.806342 32.755522-2.481479l48.814235-48.814235a26.835422 26.835422 0 0 0 8.047082-18.540193 17.370352 17.370352 0 0 0-5.565603-14.179879M422.099564 320.651388L796.590182 695.142007l83.413141-84.653881-373.887973-373.887974-84.015786 84.051236z m-68.595167-151.405663l27.189919 99.507304 72.317385-72.317385-99.507304-27.189919z m663.689261 339.891712c-19.780932 0-35.839646-16.058714-35.839646-35.839646v-483.888389c0-25.346535-20.383577-45.730111-45.730111-45.730111H116.806758a46.120058 46.120058 0 0 0-46.332757 45.730111V778.590598c0 25.346535 20.383577 45.730111 46.332757 45.730111h527.137021a35.839646 35.839646 0 0 1 0 71.679291H111.8438A111.80835 111.80835 0 0 1 0 784.1562V-16.120751a111.80835 111.80835 0 0 1 111.8438-111.843799h828.707609c61.788825 0 112.481894 50.054975 112.481894 111.843799V473.297791c-0.602645 19.780932-16.661358 35.839646-35.839645 35.839646z"  horiz-adv-x="1058" />

    


  </font>
</defs>
</svg>
